<?xml version="1.0" encoding="utf-8"?>
<!-- Generator: Adobe Illustrator 26.0.0, SVG Export Plug-In . SVG Version: 6.00 Build 0)  -->
<svg version="1.1" id="Layer_1" xmlns="http://www.w3.org/2000/svg" xmlns:xlink="http://www.w3.org/1999/xlink" x="0px" y="0px"
	 viewBox="0 0 1000 1000" style="enable-background:new 0 0 1000 1000;" xml:space="preserve">
<style type="text/css">
	.st0{fill:#FFFFFF;}
	.st1{fill:#58B9B4;}
	.st2{fill:#2C4643;}
	.st3{fill:url(#SVGID_1_);}
	.st4{fill:url(#SVGID_00000063630645145688854970000003463377284127506561_);}
</style>
<g>
	<g>
		<path class="st2" d="M302.919,649.893l-7.345-0.387v-10.953h30.926v10.438l-4.252,0.387c-2.19,0.258-3.737,1.031-3.737,4.124
			v28.349l26.287-31.957l-7.216-0.387v-10.953h30.153v10.438l-4.252,0.387c-2.062,0.258-3.351,1.418-5.155,3.608l-18.298,22.422
			l22.809,37.498l6.829,0.387v10.953H336.68v-10.438l3.995-0.387c2.448-0.258,3.351-1.418,1.933-4.124l-12.757-22.035l-11.34,13.659
			v11.984l7.345,0.387v10.953H294.93v-10.438l4.252-0.387c2.448-0.258,3.737-1.031,3.737-4.253V649.893z"/>
		<path class="st2" d="M382.551,713.808l4.639-0.387c2.19-0.129,3.351-1.031,3.351-3.608v-59.92l-7.346-0.387v-10.953h23.195
			l36.468,59.147h0.257v-47.808l-8.504-0.387v-10.953h31.441v10.438l-4.639,0.387c-1.933,0.129-3.093,1.289-3.093,3.995v70.873
			h-15.077l-37.24-60.049h-0.258v48.709l8.376,0.387v10.953h-31.57V713.808z"/>
		<path class="st2" d="M517.976,725.921c-22.938,0-37.37-14.947-37.37-44.327c0-32.988,20.747-44.586,38.787-44.586
			c19.2,0,36.468,11.854,36.468,44.586C555.861,711.102,540.526,725.921,517.976,725.921z M518.878,712.906
			c16.365,0,21.005-15.463,21.005-30.927c0-13.144-3.479-31.699-21.263-31.699c-16.494,0-21.906,15.334-21.906,30.669
			C496.714,695.638,500.322,712.906,518.878,712.906z"/>
		<path class="st2" d="M613.714,700.278c0-8.118-7.345-10.438-16.365-12.887c-12.757-3.479-24.612-8.633-24.612-25.127
			c0-15.722,12.113-25.257,29.896-25.257c8.505,0,16.494,1.675,24.226,5.283v19.329l-13.144,0.901v-7.474
			c0-2.448-0.387-3.479-2.706-4.252c-2.448-0.773-5.799-1.031-8.376-1.031c-7.603,0-13.53,3.093-13.53,11.082
			s7.474,10.18,17.139,13.144c11.727,3.737,24.097,9.021,24.097,25.644c0,17.01-13.401,26.287-31.185,26.287
			c-10.309,0-18.298-1.675-26.029-5.283v-20.359l13.144-0.902v7.86c0,2.448,0.387,3.479,2.706,4.253
			c2.448,0.772,5.799,1.159,9.278,1.159C606.756,712.648,613.714,709.942,613.714,700.278z"/>
		<path class="st2" d="M688.447,700.278c0-8.118-7.345-10.438-16.365-12.887c-12.757-3.479-24.612-8.633-24.612-25.127
			c0-15.722,12.113-25.257,29.896-25.257c8.505,0,16.494,1.675,24.226,5.283v19.329l-13.144,0.901v-7.474
			c0-2.448-0.387-3.479-2.706-4.252c-2.448-0.773-5.799-1.031-8.376-1.031c-7.603,0-13.53,3.093-13.53,11.082
			s7.474,10.18,17.139,13.144c11.727,3.737,24.097,9.021,24.097,25.644c0,17.01-13.401,26.287-31.185,26.287
			c-10.309,0-18.298-1.675-26.029-5.283v-20.359L661,699.376v7.86c0,2.448,0.387,3.479,2.706,4.253
			c2.448,0.772,5.799,1.159,9.278,1.159C681.489,712.648,688.447,709.942,688.447,700.278z"/>
	</g>
	<g>
		<g>
			<path class="st2" d="M644.444,574.969H355.556c-3.313,0-6-2.687-6-6V280.079c0-3.314,2.687-6,6-6h288.889c3.313,0,6,2.686,6,6
				v288.889C650.444,572.282,647.758,574.969,644.444,574.969z M361.556,562.969h276.889V286.079H361.556V562.969z"/>
		</g>
		<g>
			<polygon class="st2" points="375.111,469.339 396.148,469.339 470.222,385.191 545.406,469.339 623.407,380.154 453.926,380.154
							"/>
		</g>
		<g>
			<g>
				<rect x="451.296" y="429.117" class="st2" width="15.111" height="15.111"/>
			</g>
			<g>
				<rect x="451.296" y="454.228" class="st2" width="15.111" height="15.111"/>
			</g>
			<g>
				<rect x="474.63" y="429.117" class="st2" width="15.111" height="15.111"/>
			</g>
			<g>
				<rect x="474.63" y="454.228" class="st2" width="15.111" height="15.111"/>
			</g>
		</g>
	</g>
</g>
</svg>
