<?xml version="1.0" encoding="utf-8"?>
<!-- Generator: Adobe Illustrator 16.0.3, SVG Export Plug-In . SVG Version: 6.00 Build 0)  -->
<!DOCTYPE svg PUBLIC "-//W3C//DTD SVG 1.1//EN" "http://www.w3.org/Graphics/SVG/1.1/DTD/svg11.dtd">
<svg version="1.1" xmlns="http://www.w3.org/2000/svg" xmlns:xlink="http://www.w3.org/1999/xlink" x="0px" y="0px" width="150px"
	 height="100px" viewBox="0 0 150 100" enable-background="new 0 0 150 100" xml:space="preserve">
<g id="Vrstva_2">
</g>
<g id="Vrstva_1">
	<g>
		<path fill-rule="evenodd" clip-rule="evenodd" fill="#FFFFFF" d="M48.221,50.338c0.061-0.132-0.14-0.396-0.693-0.628
			c0.349,0.741,0.271,0.539-0.172,2.189c-0.234,0.902,0,1.666,0.447,2.178c0.448,0.506,2.38,2.535,3.35,1.593
			c0.972-0.942,1.161-1.379,1.221-2.536c0.046-1.16,0.187-1.558-0.341-2.321c-0.522-0.765-1.406-1.592-1.959-1.373
			c-0.555,0.212-0.608,0.212-0.608,0.212S48.206,50.369,48.221,50.338L48.221,50.338z M45.192,48.786
			c-0.398-0.411-0.742-0.548-1.056-0.428c-0.514,0.192-0.928,1.086-1.286,2.563c-0.583,2.371,0,4.365,1.155,5.691
			c1.163,1.325,6.232,6.636,8.765,4.171c2.531-2.466,3.036-3.605,3.186-6.637c0.143-3.03,0.502-4.076-0.866-6.064
			c-1.377-1.994-4.154-3.72-5.143-3.606c-0.992,0.12-1.613,0.448-1.902,0.601c-0.984,0.459-1.287,0.503-1.485,1.092
			c-0.248,0.76-0.161,2.142,0.545,3.591C46.78,49.56,45.957,49.574,45.192,48.786L45.192,48.786z M39.563,45.229
			c0,0,1.941-2.318,3.188-2.588c1.256-0.267,4.104-1.602,7.182-1.068c3.077,0.534,4.501,0.98,7.184,2.141
			c2.677,1.16,7.631,7.22,8.031,7.936c0.4,0.713,0.115,1.421-0.062,2.14c-0.174,0.712-3.984,6.063-6.55,8.024
			c-2.562,1.962-8.317,3.926-12.252,3.299c-3.932-0.626-7.806-6.776-9.225-9.45c-1.427-2.674-0.623-1.25-0.623-1.25
			s-0.285,1.071-0.686,0.982c-0.398-0.092-1.033-0.804-0.918-1.338c0.122-0.534,1.368-3.834,2.053-5.083
			C37.568,47.723,39.563,45.229,39.563,45.229L39.563,45.229z M41.925,47.864c0,0,1.256-1.992,2.271-2.208
			c1.005-0.214,3.297-1.792,5.779-1.366c2.47,0.436,3.42,1,5.575,1.931c2.157,0.938,4.365,5.371,4.679,5.944
			c0.326,0.572,0.101,1.151-0.039,1.724c-0.137,0.578-1.859,4.015-3.921,5.592c-2.067,1.58-5.839,2.847-9,2.341
			c-4.153-0.658-6.936-7.167-7.678-7.722c-1.218-0.896-1.808,0.379,0.498-3.83C40.64,49.268,41.925,47.864,41.925,47.864
			L41.925,47.864z"/>
		<path fill-rule="evenodd" clip-rule="evenodd" fill="#FFFFFF" d="M130.427,56.764c0.154,0.854,0.413,1.485,0.786,1.896
			c0.372,0.416,0.901,0.709,1.581,0.895c0.89-0.118,1.721-0.418,2.493-0.906c0.76-0.48,1.144-1.171,1.144-2.074v-7.005
			c-1.813,0.759-3.264,1.666-4.364,2.727C130.979,53.351,130.427,54.842,130.427,56.764L130.427,56.764z M136.43,48.442v-2.803
			c0-1.325-0.285-2.27-0.846-2.833c-0.562-0.552-1.218-0.831-1.974-0.831c-0.657,0-1.278,0.196-1.84,0.598
			c-0.572,0.396-0.876,0.992-0.906,1.798c0.148,0.36,0.234,0.894,0.234,1.59c0,0.611-0.184,1.087-0.536,1.431
			c-0.359,0.339-0.743,0.513-1.145,0.513c-0.403,0-0.755-0.2-1.068-0.587c-0.314-0.387-0.482-0.875-0.521-1.455
			c0.189-1.052,0.584-1.961,1.202-2.731c0.622-0.76,1.379-1.335,2.248-1.71c0.886-0.378,1.782-0.573,2.706-0.573
			c1.398,0.091,2.492,0.379,3.288,0.876c0.795,0.496,1.365,1.252,1.697,2.248c0.339,1.002,0.497,2.338,0.497,4.017v8.858
			c0,0.748,0.029,1.302,0.084,1.665c0.044,0.377,0.146,0.63,0.279,0.771c0.135,0.15,0.349,0.235,0.646,0.271
			c0.051,0,0.094,0.031,0.145,0.099c0.577-0.091,1.079-0.405,1.52-0.942v1.208c-1.018,1.478-2.053,2.218-3.118,2.218
			c-0.911,0-1.541-0.277-1.874-0.835c-0.349-0.561-0.558-1.383-0.648-2.462c-1.938,2.193-3.745,3.297-5.401,3.297
			c-1.179,0-2.119-0.467-2.82-1.392c-0.712-0.924-1.104-2.088-1.187-3.483c0.093-1.264,0.447-2.371,1.073-3.314
			c0.61-0.937,1.376-1.726,2.287-2.37c0.921-0.651,1.935-1.236,3.055-1.763C134.62,49.29,135.595,48.834,136.43,48.442
			L136.43,48.442z M110.09,43.69v-0.816c0.432-0.159,0.974-0.35,1.624-0.57c0.651-0.229,1.255-0.449,1.792-0.661
			c0.536-0.222,1.096-0.483,1.697-0.794l0.211,0.091v3.617c1.068-1.261,2.011-2.191,2.817-2.796
			c0.809-0.604,1.639-0.912,2.485-0.912c1.031,0,1.885,0.3,2.555,0.895c0.672,0.596,1.16,1.394,1.469,2.398
			c0.313,1.005,0.468,2.12,0.468,3.355v10.031c0,0.895,0.023,1.554,0.099,1.975c0.062,0.417,0.264,0.754,0.576,1.003
			c0.31,0.247,0.821,0.401,1.538,0.45v0.73h-7.665v-0.73c0.951,0,1.571-0.303,1.876-0.917c0.309-0.621,0.463-1.583,0.463-2.875
			v-9.668c0-2.775-0.942-4.164-2.821-4.164c-1.115,0.087-2.349,0.963-3.706,2.621v12.654c0,0.775,0.17,1.354,0.502,1.725
			c0.328,0.37,0.974,0.583,1.942,0.624v0.73h-7.846v-0.73c0.834,0,1.434-0.214,1.776-0.643c0.349-0.429,0.513-1.182,0.513-2.25
			V46.677c0-1.263-0.091-2.103-0.272-2.529c-0.19-0.429-0.479-0.644-0.872-0.644C110.711,43.505,110.305,43.565,110.09,43.69
			L110.09,43.69z M99.266,57.973V47.127V46.41c0-0.807-0.105-1.443-0.298-1.899c-0.206-0.457-0.613-0.684-1.225-0.684
			c-0.175,0-0.498,0.057-1.001,0.177v-0.672c2.863-1.25,4.671-2.076,5.412-2.483l0.226,0.184v3.979h0.077
			c1.405-2.775,2.881-4.163,4.403-4.163c1.248,0.067,1.93,0.895,2.036,2.483c0,0.538-0.14,1-0.422,1.381
			c-0.281,0.382-0.643,0.602-1.101,0.643c-0.269-0.048-0.671-0.328-1.204-0.82c-0.526-0.505-0.942-0.751-1.236-0.751
			c-0.325,0-0.69,0.208-1.099,0.623c-0.409,0.413-0.763,0.926-1.042,1.514c-0.276,0.602-0.412,1.118-0.412,1.567v10.399
			c0,1.081,0.227,1.865,0.691,2.346c0.473,0.48,1.307,0.721,2.497,0.721v0.73h-8.893v-0.73c0.713-0.125,1.222-0.246,1.543-0.364
			c0.321-0.13,0.576-0.382,0.766-0.758C99.166,59.45,99.266,58.832,99.266,57.973L99.266,57.973z M85.513,47.713h7.601
			c-0.132-1.043-0.294-1.919-0.499-2.641c-0.188-0.721-0.542-1.324-1.024-1.807c-0.489-0.492-1.165-0.738-2.033-0.738
			C87.325,42.527,85.976,44.257,85.513,47.713L85.513,47.713z M83.332,47.496c0.389-1.478,0.973-2.707,1.738-3.693
			c0.772-1,1.611-1.739,2.547-2.221c0.933-0.489,1.863-0.733,2.753-0.733c1.879,0,3.396,0.681,4.541,2.045
			c1.154,1.371,1.824,3.454,2.013,6.268H85.371c0.09,1.608,0.323,3.164,0.709,4.65c0.385,1.495,0.999,2.741,1.846,3.721
			c0.848,0.988,1.942,1.48,3.297,1.48c2.352,0,4.278-1.579,5.774-4.743l0.59,0.365c-0.382,1.394-0.96,2.667-1.714,3.811
			c-0.754,1.14-1.668,2.049-2.712,2.704c-1.048,0.657-2.183,0.988-3.391,0.988c-0.953,0-1.758-0.151-2.408-0.451
			c-0.965-0.398-1.781-1.07-2.467-2.019c-0.691-0.951-1.213-2.08-1.578-3.387c-0.354-1.314-0.543-2.721-0.575-4.218
			C82.816,50.291,83.021,48.767,83.332,47.496L83.332,47.496z M78.191,56.941v-9.814c0-0.766-0.136-1.53-0.423-2.296
			c-0.277-0.762-0.709-1.401-1.292-1.904c-0.573-0.513-1.292-0.767-2.146-0.767c-1.093,0-1.992,0.458-2.662,1.372
			c-0.678,0.909-1.154,2.021-1.449,3.35c-0.289,1.316-0.467,2.632-0.51,3.954c0.038,0.238,0.062,0.528,0.062,0.859
			c0.135,2.143,0.61,4.004,1.416,5.604c0.805,1.591,2.026,2.405,3.662,2.441c0.809,0,1.569-0.276,2.261-0.827
			C77.794,58.364,78.154,57.704,78.191,56.941L78.191,56.941z M68.474,44.911c0.733-1.262,1.611-2.256,2.621-2.983
			c1.016-0.719,2.068-1.079,3.157-1.079c0.923,0.037,1.657,0.214,2.2,0.536c0.543,0.319,1.111,0.787,1.739,1.406v-7.047v-0.542
			c0-1.122-0.487-1.679-1.453-1.679h-1.106v-0.719c1.67-0.518,3.514-1.205,5.522-2.036l0.141,0.099v26.116
			c0,0.666,0.101,1.176,0.278,1.527c0.185,0.349,0.656,0.552,1.391,0.603c0.247-0.066,0.529-0.101,0.855-0.101v0.728
			c-0.78,0.369-1.688,0.757-2.691,1.177c-1.016,0.415-1.947,0.82-2.79,1.22l-0.146-0.092v-2.848H78.1
			c-0.495,0.875-1.094,1.592-1.771,2.127c-0.688,0.543-1.689,0.813-2.996,0.813c-1.059,0-2.013-0.267-2.865-0.792
			c-0.85-0.526-1.556-1.24-2.132-2.16c-0.585-0.908-1.008-1.939-1.3-3.079c-0.298-1.133-0.442-2.337-0.442-3.587
			C66.593,49.483,67.213,46.952,68.474,44.911L68.474,44.911z"/>
		<path fill-rule="evenodd" clip-rule="evenodd" fill="#FFFFFF" d="M9.817,47.757c0-1.096-0.024-1.903-0.075-2.418
			c-0.035-0.516-0.164-0.913-0.348-1.195C9.201,43.87,8.893,43.73,8.449,43.73c-0.139,0-0.492,0.06-1.074,0.186V43.1
			c1.885-0.631,3.586-1.305,5.109-2.035l0.302,0.093v3.429c1.283-1.273,2.339-2.178,3.155-2.713c0.81-0.537,1.667-0.809,2.546-0.809
			c2.049,0.104,3.381,1.37,3.999,3.798c0.488-0.682,1.046-1.313,1.67-1.886c0.627-0.579,1.313-1.035,2.06-1.386
			c0.731-0.346,1.469-0.525,2.194-0.525c1.518,0.047,2.632,0.74,3.344,2.077c0.714,1.347,1.067,3.394,1.067,6.146v9.177
			c0,0.827,0.102,1.421,0.284,1.79c0.189,0.355,0.428,0.584,0.728,0.673c0.299,0.091,0.794,0.171,1.512,0.245v0.729h-8.078v-0.729
			c0.657-0.073,1.124-0.159,1.423-0.253c0.297-0.098,0.543-0.344,0.74-0.759c0.185-0.407,0.29-1.063,0.29-1.967v-9.72
			c0-1.292-0.097-2.288-0.264-3.006c-0.174-0.712-0.463-1.212-0.858-1.511c-0.4-0.289-0.967-0.457-1.692-0.492
			c-1.703,0-3.051,0.9-4.039,2.706v11.395c0,0.89,0.063,1.589,0.198,2.089c0.134,0.513,0.394,0.889,0.776,1.141
			c0.382,0.255,0.945,0.377,1.693,0.377v0.729h-8.263v-0.729c0.651-0.045,1.13-0.111,1.434-0.208
			c0.285-0.101,0.544-0.374,0.764-0.841c0.209-0.456,0.318-1.19,0.318-2.193V48.21c0-1.643-0.205-2.832-0.615-3.572
			c-0.408-0.741-1.039-1.13-1.9-1.172c-0.851,0-1.696,0.27-2.522,0.807c-0.83,0.537-1.432,1.115-1.814,1.715v11.756
			c0,0.982,0.044,1.703,0.147,2.153c0.117,0.45,0.335,0.764,0.672,0.951c0.342,0.177,0.911,0.282,1.702,0.325v0.729H7.226v-0.729
			c1.044,0,1.734-0.233,2.081-0.701c0.336-0.468,0.51-1.352,0.51-2.641V47.757L9.817,47.757z"/>
		<g>
			<path fill-rule="evenodd" clip-rule="evenodd" fill="#FFFFFF" d="M67.884,40.244c-0.683,0.493-1.237,1.157-2.086,1.97
				c-0.853,0.813-2.205,1.992-2.466,2.709c-0.259,0.711,0.953,1.78,1.574,0.961c0.609-0.82,1.377-1.411,2.161-2.167
				c0.796-0.755,1.797-1.042,1.986-1.837c0.177-0.8,0-1.167-0.233-1.416C68.596,40.215,67.884,40.244,67.884,40.244L67.884,40.244z"
				/>
			<path fill-rule="evenodd" clip-rule="evenodd" fill="#FFFFFF" d="M59.612,35.016c-0.594,0.608-1.029,1.363-1.735,2.312
				c-0.708,0.951-1.842,2.351-1.982,3.101c-0.136,0.749,1.226,1.588,1.696,0.676c0.47-0.923,1.14-1.637,1.791-2.519
				c0.65-0.878,1.592-1.334,1.636-2.157c0.056-0.819-0.178-1.146-0.444-1.356C60.313,34.868,59.612,35.016,59.612,35.016
				L59.612,35.016z"/>
			<path fill-rule="evenodd" clip-rule="evenodd" fill="#FFFFFF" d="M49.66,32.836c-0.248,0.821-0.309,1.7-0.5,2.878
				c-0.204,1.174-0.582,2.966-0.367,3.694c0.215,0.731,1.805,0.825,1.812-0.219c0.002-1.032,0.27-1.984,0.455-3.08
				c0.175-1.094,0.813-1.952,0.486-2.7c-0.329-0.752-0.687-0.925-1.006-0.983C50.209,32.37,49.66,32.836,49.66,32.836L49.66,32.836z
				"/>
			<path fill-rule="evenodd" clip-rule="evenodd" fill="#FFFFFF" d="M41.219,34.284c-0.04,0.859,0.124,1.729,0.217,2.92
				c0.105,1.187,0.174,3.015,0.558,3.667c0.385,0.648,1.954,0.318,1.696-0.689c-0.252-1.003-0.227-1.992-0.316-3.095
				c-0.087-1.107,0.31-2.099-0.193-2.744c-0.494-0.639-0.885-0.712-1.219-0.682C41.638,33.688,41.219,34.284,41.219,34.284
				L41.219,34.284z"/>
			<path fill-rule="evenodd" clip-rule="evenodd" fill="#FFFFFF" d="M32.385,40.439c0.46,0.715,1.097,1.308,1.861,2.205
				c0.761,0.891,1.878,2.317,2.564,2.604c0.689,0.288,1.749-0.942,0.97-1.595c-0.791-0.656-1.343-1.462-2.049-2.292
				c-0.714-0.833-0.968-1.872-1.733-2.084c-0.778-0.207-1.131-0.029-1.378,0.2C32.375,39.706,32.385,40.439,32.385,40.439
				L32.385,40.439z"/>
		</g>
		<g>
			<path fill="#FFFFFF" d="M141.511,34.545c0.557,0,1.09,0.141,1.598,0.42c0.509,0.279,0.911,0.676,1.206,1.194
				c0.293,0.525,0.441,1.062,0.441,1.634c0,0.566-0.145,1.104-0.433,1.616c-0.288,0.509-0.688,0.907-1.198,1.195
				c-0.51,0.288-1.048,0.435-1.615,0.435c-0.568,0-1.106-0.147-1.616-0.435c-0.51-0.289-0.91-0.686-1.197-1.195
				c-0.289-0.511-0.434-1.05-0.434-1.616c0-0.572,0.148-1.109,0.441-1.634c0.296-0.518,0.698-0.915,1.205-1.194
				C140.419,34.686,140.952,34.545,141.511,34.545z M141.514,35.185c-0.45,0-0.868,0.109-1.277,0.335
				c-0.41,0.223-0.737,0.541-0.97,0.962c-0.232,0.414-0.352,0.854-0.352,1.311c0,0.453,0.115,0.89,0.343,1.301
				c0.227,0.411,0.551,0.735,0.965,0.963c0.413,0.232,0.841,0.346,1.291,0.346c0.459,0,0.893-0.113,1.295-0.346
				c0.412-0.228,0.737-0.552,0.967-0.963c0.239-0.411,0.352-0.848,0.352-1.301c0-0.456-0.117-0.896-0.361-1.311
				c-0.233-0.421-0.554-0.739-0.959-0.962C142.394,35.294,141.965,35.185,141.514,35.185z M140.046,39.525v-3.442h0.702
				c0.652,0,1.017,0.004,1.103,0.008c0.229,0.021,0.412,0.066,0.54,0.137c0.13,0.074,0.233,0.187,0.315,0.333
				c0.093,0.149,0.128,0.314,0.128,0.491c0,0.25-0.076,0.464-0.241,0.639c-0.163,0.178-0.389,0.286-0.684,0.331
				c0.102,0.039,0.189,0.078,0.239,0.127c0.061,0.046,0.135,0.135,0.241,0.267c0.019,0.031,0.109,0.169,0.253,0.416l0.408,0.692
				h-0.87l-0.289-0.557c-0.189-0.374-0.35-0.608-0.479-0.706c-0.126-0.101-0.29-0.15-0.484-0.15h-0.179v1.413H140.046z
				 M140.748,37.572h0.283c0.404,0,0.653-0.015,0.749-0.048c0.094-0.034,0.177-0.085,0.228-0.165
				c0.061-0.071,0.091-0.161,0.091-0.263c0-0.093-0.031-0.179-0.09-0.256c-0.047-0.076-0.134-0.127-0.232-0.157
				c-0.099-0.036-0.348-0.054-0.746-0.054h-0.283V37.572z"/>
		</g>
	</g>
</g>
</svg>
